<svg width="270" height="134" viewBox="0 0 270 134" fill="none" xmlns="http://www.w3.org/2000/svg">
<g clip-path="url(#clip0_621476_360)">
<rect width="270" height="134" fill="url(#paint0_linear_621476_360)"/>
<path d="M254.597 8.68132V18.6188L260.576 20.7021V38.6188L264.556 40.598L268.535 38.6188V20.7021L274.493 18.6188V8.68132C274.493 7.09914 273.866 5.58147 272.749 4.46075C271.632 3.34004 270.117 2.70766 268.535 2.70215L260.576 2.70215C258.992 2.70764 257.475 3.33935 256.355 4.45947C255.235 5.57959 254.603 7.09723 254.597 8.68132Z" stroke="white" stroke-width="2.368" stroke-miterlimit="10"/>
<path d="M260.577 10.6606L268.535 10.6606" stroke="white" stroke-width="2.368" stroke-miterlimit="10"/>
<path d="M264.556 32.5356H268.535" stroke="white" stroke-width="2.368" stroke-miterlimit="10"/>
<path d="M264.556 26.5771H268.535" stroke="white" stroke-width="2.368" stroke-miterlimit="10"/>
<path d="M260.576 20.7023L254.701 26.5148L249.076 23.7023L244.91 27.869L240.743 32.0356L236.576 36.2023L232.41 34.8273L230.993 30.6606L243.639 17.994L240.576 12.369L247.618 5.43147C248.687 4.36001 250.124 3.73573 251.637 3.68542C253.15 3.63512 254.626 4.16257 255.764 5.16064" stroke="white" stroke-width="2.368" stroke-miterlimit="10"/>
<path d="M254.598 15.2437L250.431 11.0562" stroke="white" stroke-width="2.368" stroke-miterlimit="10"/>
<path d="M237.764 29.3271L240.576 32.1396" stroke="white" stroke-width="2.368" stroke-miterlimit="10"/>
<path d="M241.993 25.1187L244.806 27.9312" stroke="white" stroke-width="2.368" stroke-miterlimit="10"/>
<path d="M250.68 3.80639C250.893 1.96281 251.744 0.25162 253.085 -1.03123C254.426 -2.31408 256.173 -3.08792 258.024 -3.21891C259.876 -3.3499 261.714 -2.82981 263.223 -1.74859C264.731 -0.667366 265.814 0.906999 266.285 2.70222C266.65 4.12637 266.614 5.6239 266.18 7.02868C265.746 8.43346 264.931 9.69057 263.826 10.6606" stroke="white" stroke-width="2.368" stroke-miterlimit="10"/>
<path d="M218.979 61.0627V71.0002L224.958 73.0835V91.0002L228.938 92.9793L232.917 91.0002V73.0835L238.875 71.0002V61.0627C238.875 59.4805 238.248 57.9628 237.131 56.8421C236.014 55.7214 234.499 55.089 232.917 55.0835H224.958C223.374 55.089 221.857 55.7207 220.736 56.8408C219.616 57.9609 218.985 59.4786 218.979 61.0627Z" stroke="white" stroke-width="2.368" stroke-miterlimit="10"/>
<path d="M224.959 63.042H232.917" stroke="white" stroke-width="2.368" stroke-miterlimit="10"/>
<path d="M228.938 84.917H232.917" stroke="white" stroke-width="2.368" stroke-miterlimit="10"/>
<path d="M228.938 78.9585H232.917" stroke="white" stroke-width="2.368" stroke-miterlimit="10"/>
<path d="M224.958 73.0837L219.083 78.8962L213.458 76.0837L209.291 80.2503L205.125 84.417L200.958 88.5837L196.791 87.2087L195.375 83.042L208.021 70.3753L204.958 64.7503L212 57.8128C213.069 56.7414 214.506 56.1171 216.019 56.0668C217.532 56.0165 219.007 56.5439 220.146 57.542" stroke="white" stroke-width="2.368" stroke-miterlimit="10"/>
<path d="M218.979 67.625L214.813 63.4375" stroke="white" stroke-width="2.368" stroke-miterlimit="10"/>
<path d="M202.146 81.7085L204.958 84.521" stroke="white" stroke-width="2.368" stroke-miterlimit="10"/>
<path d="M206.375 77.5L209.188 80.3125" stroke="white" stroke-width="2.368" stroke-miterlimit="10"/>
<path d="M215.062 56.1877C215.275 54.3442 216.126 52.633 217.467 51.3501C218.808 50.0673 220.555 49.2934 222.406 49.1624C224.257 49.0314 226.096 49.5515 227.605 50.6328C229.113 51.714 230.196 53.2883 230.666 55.0836C231.032 56.5077 230.995 58.0052 230.562 59.41C230.128 60.8148 229.313 62.0719 228.208 63.0419" stroke="white" stroke-width="2.368" stroke-miterlimit="10"/>
<path d="M182.979 113.063V123L188.958 125.083V143L192.938 144.979L196.917 143V125.083L202.875 123V113.063C202.875 111.48 202.248 109.963 201.131 108.842C200.014 107.721 198.499 107.089 196.917 107.083H188.958C187.374 107.089 185.857 107.721 184.736 108.841C183.616 109.961 182.985 111.479 182.979 113.063Z" stroke="white" stroke-width="2.368" stroke-miterlimit="10"/>
<path d="M188.959 115.042H196.917" stroke="white" stroke-width="2.368" stroke-miterlimit="10"/>
<path d="M192.938 130.958H196.917" stroke="white" stroke-width="2.368" stroke-miterlimit="10"/>
<path d="M188.958 125.084L183.083 130.896L177.458 128.084L173.291 132.25L169.125 136.417L164.958 140.584L160.791 139.209L159.375 135.042L172.021 122.375L168.958 116.75L176 109.813C177.069 108.741 178.506 108.117 180.019 108.067C181.532 108.016 183.007 108.544 184.146 109.542" stroke="white" stroke-width="2.368" stroke-miterlimit="10"/>
<path d="M182.979 119.625L178.813 115.438" stroke="white" stroke-width="2.368" stroke-miterlimit="10"/>
<path d="M166.146 133.708L168.958 136.521" stroke="white" stroke-width="2.368" stroke-miterlimit="10"/>
<path d="M170.375 129.5L173.188 132.312" stroke="white" stroke-width="2.368" stroke-miterlimit="10"/>
<path d="M179.062 108.188C179.275 106.344 180.126 104.633 181.467 103.35C182.808 102.067 184.555 101.293 186.406 101.162C188.257 101.031 190.096 101.552 191.605 102.633C193.113 103.714 194.196 105.288 194.666 107.084C195.032 108.508 194.995 110.005 194.562 111.41C194.128 112.815 193.313 114.072 192.208 115.042" stroke="white" stroke-width="2.368" stroke-miterlimit="10"/>
<path d="M191.597 -1.93734V8.00016L197.576 10.0835V28.0002L201.556 29.9793L205.535 28.0002V10.0835L211.493 8.00016V-1.93734C211.493 -3.51951 210.866 -5.03718 209.749 -6.1579C208.632 -7.27861 207.117 -7.91099 205.535 -7.9165L197.576 -7.9165C195.992 -7.91101 194.475 -7.2793 193.355 -6.15918C192.235 -5.03906 191.603 -3.52142 191.597 -1.93734Z" stroke="white" stroke-width="2.368" stroke-miterlimit="10"/>
<path d="M197.577 0.0419922L205.535 0.0419922" stroke="white" stroke-width="2.368" stroke-miterlimit="10"/>
<path d="M201.556 21.917H205.535" stroke="white" stroke-width="2.368" stroke-miterlimit="10"/>
<path d="M201.556 15.9585H205.535" stroke="white" stroke-width="2.368" stroke-miterlimit="10"/>
<path d="M197.576 10.0837L191.701 15.8962L186.076 13.0837L181.91 17.2503L177.743 21.417L173.576 25.5837L169.41 24.2087L167.993 20.042L180.639 7.37532L177.576 1.75032L184.618 -5.18718C185.687 -6.25865 187.124 -6.88293 188.637 -6.93323C190.15 -6.98353 191.626 -6.45608 192.764 -5.45801" stroke="white" stroke-width="2.368" stroke-miterlimit="10"/>
<path d="M191.598 4.625L187.431 0.4375" stroke="white" stroke-width="2.368" stroke-miterlimit="10"/>
<path d="M174.764 18.7085L177.576 21.521" stroke="white" stroke-width="2.368" stroke-miterlimit="10"/>
<path d="M178.993 14.5L181.806 17.3125" stroke="white" stroke-width="2.368" stroke-miterlimit="10"/>
<path d="M187.68 -6.81227C187.893 -8.65584 188.744 -10.367 190.085 -11.6499C191.426 -12.9327 193.173 -13.7066 195.024 -13.8376C196.876 -13.9686 198.714 -13.4485 200.223 -12.3672C201.731 -11.286 202.814 -9.71165 203.285 -7.91643C203.65 -6.49228 203.614 -4.99475 203.18 -3.58997C202.746 -2.18519 201.931 -0.928084 200.826 0.0419015" stroke="white" stroke-width="2.368" stroke-miterlimit="10"/>
<path d="M155.979 50.444V60.3815L161.958 62.4648V80.3815L165.938 82.3607L169.917 80.3815V62.4648L175.875 60.3815V50.444C175.875 48.8618 175.248 47.3442 174.131 46.2235C173.014 45.1027 171.499 44.4704 169.917 44.4648H161.958C160.374 44.4703 158.857 45.102 157.736 46.2222C156.616 47.3423 155.985 48.8599 155.979 50.444Z" stroke="white" stroke-width="2.368" stroke-miterlimit="10"/>
<path d="M161.959 52.4233H169.917" stroke="white" stroke-width="2.368" stroke-miterlimit="10"/>
<path d="M165.938 74.2983H169.917" stroke="white" stroke-width="2.368" stroke-miterlimit="10"/>
<path d="M165.938 68.3398H169.917" stroke="white" stroke-width="2.368" stroke-miterlimit="10"/>
<path d="M161.958 62.465L156.083 68.2775L150.458 65.465L146.291 69.6317L142.125 73.7983L137.958 77.965L133.791 76.59L132.375 72.4233L145.021 59.7567L141.958 54.1317L149 47.1942C150.069 46.1227 151.506 45.4984 153.019 45.4481C154.532 45.3978 156.007 45.9253 157.146 46.9233" stroke="white" stroke-width="2.368" stroke-miterlimit="10"/>
<path d="M155.979 57.0063L151.813 52.8188" stroke="white" stroke-width="2.368" stroke-miterlimit="10"/>
<path d="M139.146 71.0898L141.958 73.9023" stroke="white" stroke-width="2.368" stroke-miterlimit="10"/>
<path d="M143.375 66.8813L146.188 69.6938" stroke="white" stroke-width="2.368" stroke-miterlimit="10"/>
<path d="M152.062 45.5691C152.275 43.7255 153.126 42.0143 154.467 40.7315C155.808 39.4486 157.555 38.6748 159.406 38.5438C161.257 38.4128 163.096 38.9329 164.605 40.0141C166.113 41.0953 167.196 42.6697 167.666 44.4649C168.032 45.8891 167.995 47.3866 167.562 48.7914C167.128 50.1962 166.313 51.4533 165.208 52.4232" stroke="white" stroke-width="2.368" stroke-miterlimit="10"/>
<path d="M119.979 102.444V112.382L125.958 114.465V132.382L129.938 134.361L133.917 132.382V114.465L139.875 112.382V102.444C139.875 100.862 139.248 99.3442 138.131 98.2235C137.014 97.1027 135.499 96.4704 133.917 96.4648H125.958C124.374 96.4703 122.857 97.102 121.736 98.2222C120.616 99.3423 119.985 100.86 119.979 102.444Z" stroke="white" stroke-width="2.368" stroke-miterlimit="10"/>
<path d="M125.959 104.423H133.917" stroke="white" stroke-width="2.368" stroke-miterlimit="10"/>
<path d="M129.938 126.298H133.917" stroke="white" stroke-width="2.368" stroke-miterlimit="10"/>
<path d="M129.938 120.34H133.917" stroke="white" stroke-width="2.368" stroke-miterlimit="10"/>
<path d="M125.958 114.465L120.083 120.278L114.458 117.465L110.291 121.632L106.125 125.798L101.958 129.965L97.7913 128.59L96.3747 124.423L109.021 111.757L105.958 106.132L113 99.1942C114.069 98.1227 115.506 97.4984 117.019 97.4481C118.532 97.3978 120.007 97.9253 121.146 98.9233" stroke="white" stroke-width="2.368" stroke-miterlimit="10"/>
<path d="M119.979 109.006L115.813 104.819" stroke="white" stroke-width="2.368" stroke-miterlimit="10"/>
<path d="M103.146 123.09L105.958 125.902" stroke="white" stroke-width="2.368" stroke-miterlimit="10"/>
<path d="M107.375 118.881L110.188 121.694" stroke="white" stroke-width="2.368" stroke-miterlimit="10"/>
<path d="M116.062 97.5691C116.275 95.7255 117.126 94.0143 118.467 92.7315C119.808 91.4486 121.555 90.6748 123.406 90.5438C125.257 90.4128 127.096 90.9329 128.605 92.0141C130.113 93.0953 131.196 94.6697 131.666 96.4649C132.032 97.8891 131.995 99.3866 131.562 100.791C131.128 102.196 130.313 103.453 129.208 104.423" stroke="white" stroke-width="2.368" stroke-miterlimit="10"/>
<path d="M128.597 -12.556V-2.61849L134.576 -0.535156V17.3815L138.556 19.3607L142.535 17.3815V-0.535156L148.493 -2.61849V-12.556C148.493 -14.1382 147.866 -15.6558 146.749 -16.7765C145.632 -17.8973 144.117 -18.5296 142.535 -18.5352L134.576 -18.5352C132.992 -18.5297 131.475 -17.898 130.355 -16.7778C129.235 -15.6577 128.603 -14.1401 128.597 -12.556Z" stroke="white" stroke-width="2.368" stroke-miterlimit="10"/>
<path d="M138.556 11.2983H142.535" stroke="white" stroke-width="2.368" stroke-miterlimit="10"/>
<path d="M138.556 5.33984L142.535 5.33984" stroke="white" stroke-width="2.368" stroke-miterlimit="10"/>
<path d="M134.576 -0.534997L128.701 5.2775L123.076 2.465L118.91 6.63167L114.743 10.7983L110.576 14.965L106.41 13.59L104.993 9.42334L117.639 -3.24333L114.576 -8.86833L121.618 -15.8058C122.687 -16.8773 124.124 -17.5016 125.637 -17.5519C127.15 -17.6022 128.626 -17.0747 129.764 -16.0767" stroke="white" stroke-width="2.368" stroke-miterlimit="10"/>
<path d="M111.764 8.08984L114.576 10.9023" stroke="white" stroke-width="2.368" stroke-miterlimit="10"/>
<path d="M115.993 3.88135L118.806 6.69385" stroke="white" stroke-width="2.368" stroke-miterlimit="10"/>
<path d="M92.9792 39.8254V49.7629L98.9583 51.8462V69.7629L102.938 71.742L106.917 69.7629V51.8462L112.875 49.7629V39.8254C112.875 38.2432 112.248 36.7255 111.131 35.6048C110.014 34.4841 108.499 33.8517 106.917 33.8462H98.9583C97.3742 33.8517 95.8566 34.4834 94.7365 35.6035C93.6164 36.7236 92.9847 38.2413 92.9792 39.8254Z" stroke="white" stroke-width="2.368" stroke-miterlimit="10"/>
<path d="M98.9587 41.8047H106.917" stroke="white" stroke-width="2.368" stroke-miterlimit="10"/>
<path d="M102.938 63.6797H106.917" stroke="white" stroke-width="2.368" stroke-miterlimit="10"/>
<path d="M102.938 57.7212H106.917" stroke="white" stroke-width="2.368" stroke-miterlimit="10"/>
<path d="M98.958 51.8464L93.083 57.6589L87.458 54.8464L83.2913 59.013L79.1247 63.1797L74.958 67.3464L70.7913 65.9714L69.3747 61.8047L82.0205 49.138L78.958 43.513L85.9997 36.5755C87.069 35.504 88.5061 34.8798 90.019 34.8295C91.532 34.7792 93.0074 35.3066 94.1455 36.3047" stroke="white" stroke-width="2.368" stroke-miterlimit="10"/>
<path d="M92.9795 46.3877L88.8128 42.2002" stroke="white" stroke-width="2.368" stroke-miterlimit="10"/>
<path d="M76.1455 60.4712L78.958 63.2837" stroke="white" stroke-width="2.368" stroke-miterlimit="10"/>
<path d="M80.375 56.2627L83.1875 59.0752" stroke="white" stroke-width="2.368" stroke-miterlimit="10"/>
<path d="M89.0622 34.9504C89.2752 33.1069 90.1257 31.3957 91.4668 30.1128C92.8078 28.83 94.555 28.0561 96.4062 27.9251C98.2575 27.7941 100.096 28.3142 101.605 29.3955C103.113 30.4767 104.196 32.051 104.666 33.8463C105.032 35.2704 104.995 36.7679 104.562 38.1727C104.128 39.5775 103.313 40.8346 102.208 41.8046" stroke="white" stroke-width="2.368" stroke-miterlimit="10"/>
<path d="M56.9792 91.8254V101.763L62.9583 103.846L62.9583 121.763L66.9375 123.742L70.9167 121.763V103.846L76.875 101.763V91.8254C76.875 90.2432 76.2479 88.7255 75.1311 87.6048C74.0143 86.4841 72.4988 85.8517 70.9167 85.8462H62.9583C61.3742 85.8517 59.8566 86.4834 58.7365 87.6035C57.6164 88.7236 56.9847 90.2413 56.9792 91.8254Z" stroke="white" stroke-width="2.368" stroke-miterlimit="10"/>
<path d="M62.9587 93.8047H70.917" stroke="white" stroke-width="2.368" stroke-miterlimit="10"/>
<path d="M66.9378 115.68H70.917" stroke="white" stroke-width="2.368" stroke-miterlimit="10"/>
<path d="M66.9378 109.721H70.917" stroke="white" stroke-width="2.368" stroke-miterlimit="10"/>
<path d="M62.958 103.846L57.083 109.659L51.458 106.846L47.2913 111.013L43.1247 115.18L38.958 119.346L34.7913 117.971L33.3747 113.805L46.0205 101.138L42.958 95.513L49.9997 88.5755C51.069 87.504 52.5061 86.8798 54.019 86.8295C55.532 86.7792 57.0074 87.3066 58.1455 88.3047" stroke="white" stroke-width="2.368" stroke-miterlimit="10"/>
<path d="M56.9795 98.3877L52.8128 94.2002" stroke="white" stroke-width="2.368" stroke-miterlimit="10"/>
<path d="M40.1455 112.471L42.958 115.284" stroke="white" stroke-width="2.368" stroke-miterlimit="10"/>
<path d="M44.375 108.263L47.1875 111.075" stroke="white" stroke-width="2.368" stroke-miterlimit="10"/>
<path d="M53.0622 86.9504C53.2752 85.1069 54.1257 83.3957 55.4668 82.1128C56.8078 80.83 58.555 80.0561 60.4062 79.9251C62.2575 79.7941 64.0962 80.3142 65.6046 81.3955C67.1129 82.4767 68.1959 84.051 68.6664 85.8463C69.0317 87.2704 68.9954 88.7679 68.5615 90.1727C68.1276 91.5775 67.313 92.8346 66.208 93.8046" stroke="white" stroke-width="2.368" stroke-miterlimit="10"/>
<path d="M65.5973 -23.1746V-13.2371L71.5765 -11.1538V6.76286L75.5557 8.74202L79.5348 6.76286V-11.1538L85.4932 -13.2371V-23.1746C85.4932 -24.7568 84.8661 -26.2745 83.7493 -27.3952C82.6325 -28.5159 81.117 -29.1483 79.5348 -29.1538L71.5765 -29.1538C69.9924 -29.1483 68.4748 -28.5166 67.3547 -27.3965C66.2345 -26.2764 65.6028 -24.7587 65.5973 -23.1746Z" stroke="white" stroke-width="2.368" stroke-miterlimit="10"/>
<path d="M75.556 0.679688L79.5352 0.679688" stroke="white" stroke-width="2.368" stroke-miterlimit="10"/>
<path d="M71.5762 -11.1536L65.7012 -5.34115L60.0762 -8.15365L55.9095 -3.98698L51.7428 0.179686L47.5762 4.34635L43.4095 2.97135L41.9928 -1.19531L54.6387 -13.862L51.5762 -19.487L58.6178 -26.4245C59.6872 -27.496 61.1243 -28.1202 62.6372 -28.1705C64.1502 -28.2208 65.6255 -27.6934 66.7637 -26.6953" stroke="white" stroke-width="2.368" stroke-miterlimit="10"/>
<path d="M48.7637 -2.52881L51.5762 0.283692" stroke="white" stroke-width="2.368" stroke-miterlimit="10"/>
<path d="M29.9792 29.2067L29.9792 39.1442L35.9583 41.2275L35.9583 59.1442L39.9375 61.1234L43.9167 59.1442L43.9167 41.2275L49.875 39.1442V29.2067C49.875 27.6245 49.2479 26.1069 48.1311 24.9861C47.0143 23.8654 45.4988 23.2331 43.9167 23.2275L35.9583 23.2275C34.3742 23.233 32.8566 23.8647 31.7365 24.9849C30.6164 26.105 29.9847 27.6226 29.9792 29.2067Z" stroke="white" stroke-width="2.368" stroke-miterlimit="10"/>
<path d="M35.9587 31.186H43.917" stroke="white" stroke-width="2.368" stroke-miterlimit="10"/>
<path d="M39.9378 53.061H43.917" stroke="white" stroke-width="2.368" stroke-miterlimit="10"/>
<path d="M39.9378 47.1025H43.917" stroke="white" stroke-width="2.368" stroke-miterlimit="10"/>
<path d="M35.958 41.2277L30.083 47.0402L24.458 44.2277L20.2913 48.3944L16.1247 52.561L11.958 56.7277L7.79134 55.3527L6.37467 51.186L19.0205 38.5194L15.958 32.8944L22.9997 25.9569C24.069 24.8854 25.5061 24.2611 27.019 24.2108C28.532 24.1605 30.0074 24.688 31.1455 25.686" stroke="white" stroke-width="2.368" stroke-miterlimit="10"/>
<path d="M29.9795 35.769L25.8128 31.5815" stroke="white" stroke-width="2.368" stroke-miterlimit="10"/>
<path d="M13.1455 49.8525L15.958 52.665" stroke="white" stroke-width="2.368" stroke-miterlimit="10"/>
<path d="M17.375 45.644L20.1875 48.4565" stroke="white" stroke-width="2.368" stroke-miterlimit="10"/>
<path d="M26.0622 24.3318C26.2752 22.4882 27.1257 20.777 28.4668 19.4942C29.8078 18.2113 31.555 17.4375 33.4062 17.3065C35.2575 17.1755 37.0962 17.6956 38.6046 18.7768C40.1129 19.858 41.1959 21.4324 41.6664 23.2276C42.0317 24.6518 41.9954 26.1493 41.5615 27.5541C41.1276 28.9588 40.313 30.216 39.208 31.1859" stroke="white" stroke-width="2.368" stroke-miterlimit="10"/>
<path d="M-6.02083 81.2067L-6.02083 91.1442L-0.0416668 93.2275L-0.0416668 111.144L3.9375 113.123L7.91667 111.144L7.91667 93.2275L13.875 91.1442V81.2067C13.875 79.6245 13.2479 78.1069 12.1311 76.9861C11.0143 75.8654 9.49883 75.2331 7.91667 75.2275H-0.0416668C-1.62575 75.233 -3.14339 75.8647 -4.26351 76.9849C-5.38363 78.105 -6.01534 79.6226 -6.02083 81.2067Z" stroke="white" stroke-width="2.368" stroke-miterlimit="10"/>
<path d="M-0.0413421 83.186H7.91699" stroke="white" stroke-width="2.368" stroke-miterlimit="10"/>
<path d="M3.93783 105.061H7.91699" stroke="white" stroke-width="2.368" stroke-miterlimit="10"/>
<path d="M3.93783 99.1025H7.91699" stroke="white" stroke-width="2.368" stroke-miterlimit="10"/>
<path d="M-0.0419922 93.2277L-5.91699 99.0402L-11.542 96.2277L-15.7087 100.394L-19.8753 104.561L-24.042 108.728L-28.2087 107.353L-29.6253 103.186L-16.9795 90.5194L-20.042 84.8944L-13.0003 77.9569C-11.931 76.8854 -10.4939 76.2611 -8.98096 76.2108C-7.46801 76.1605 -5.99264 76.688 -4.85449 77.686" stroke="white" stroke-width="2.368" stroke-miterlimit="10"/>
<path d="M-9.93779 76.3318C-9.72484 74.4882 -8.87429 72.777 -7.53323 71.4942C-6.19218 70.2113 -4.44496 69.4375 -2.59375 69.3065C-0.742548 69.1755 1.09623 69.6956 2.60457 70.7768C4.1129 71.858 5.19595 73.4324 5.66638 75.2276C6.03174 76.6518 5.99544 78.1493 5.5615 79.5541C5.12757 80.9588 4.31296 82.216 3.20805 83.1859" stroke="white" stroke-width="2.368" stroke-miterlimit="10"/>
</g>
<defs>
<linearGradient id="paint0_linear_621476_360" x1="268.494" y1="3.15292" x2="-7.40478" y2="56.6589" gradientUnits="userSpaceOnUse">
<stop stop-color="#D11EC1"/>
<stop offset="1" stop-color="#864BFF"/>
</linearGradient>
<clipPath id="clip0_621476_360">
<rect width="270" height="134" fill="white"/>
</clipPath>
</defs>
</svg>
