<svg width="270" height="134" viewBox="0 0 270 134" fill="none" xmlns="http://www.w3.org/2000/svg">
<g clip-path="url(#clip0_621476_226)">
<rect width="270" height="134" fill="url(#paint0_linear_621476_226)"/>
<path d="M112.547 37.1912L60.3555 -15L25.0001 20.3553L77.1913 72.5466L112.547 37.1912Z" stroke="white" stroke-width="2.5" stroke-miterlimit="10"/>
<path d="M51.0957 19.5131C53.8852 22.3026 58.4078 22.3026 61.1972 19.5131C63.9867 16.7237 63.9867 12.2011 61.1972 9.4116C58.4078 6.62214 53.8852 6.62214 51.0957 9.4116C48.3063 12.2011 48.3063 16.7237 51.0957 19.5131Z" stroke="white" stroke-width="2.5" stroke-miterlimit="10"/>
<path d="M78.0332 46.4506C80.8227 49.2401 85.3453 49.2401 88.1347 46.4506C90.9242 43.6612 90.9242 39.1386 88.1347 36.3491C85.3453 33.5596 80.8227 33.5596 78.0332 36.3491C75.2438 39.1386 75.2438 43.6612 78.0332 46.4506Z" stroke="white" stroke-width="2.5" stroke-miterlimit="10"/>
<path d="M72.1405 67.4959L78.0331 56.5526L59.5136 38.0331L40.9941 19.5137L30.0508 25.4062" stroke="white" stroke-width="2.5" stroke-miterlimit="10"/>
<path d="M106.654 38.033L60.3555 -8.26562L56.9883 -4.89845L103.287 41.4002L106.654 38.033Z" stroke="white" stroke-width="2.5" stroke-miterlimit="10"/>
<path d="M77.1914 30.457L67.0898 20.3555L62.0391 25.4062L72.1406 35.5078L77.1914 30.457Z" stroke="white" stroke-width="2.5" stroke-miterlimit="10"/>
<path d="M29.5467 57.1912L-22.6445 5L-57.9999 40.3553L-5.80866 92.5466L29.5467 57.1912Z" stroke="white" stroke-width="2.5" stroke-miterlimit="10"/>
<path d="M-4.96678 66.4506C-2.17732 69.2401 2.34529 69.2401 5.13475 66.4506C7.92421 63.6612 7.92421 59.1386 5.13475 56.3491C2.34529 53.5596 -2.17732 53.5596 -4.96678 56.3491C-7.75624 59.1386 -7.75624 63.6612 -4.96678 66.4506Z" stroke="white" stroke-width="2.5" stroke-miterlimit="10"/>
<path d="M23.6541 58.033L-22.6445 11.7344L-26.0117 15.1016L20.2869 61.4002L23.6541 58.033Z" stroke="white" stroke-width="2.5" stroke-miterlimit="10"/>
<path d="M207.547 14.1912L155.355 -38L120 -2.64466L172.191 49.5466L207.547 14.1912Z" stroke="white" stroke-width="2.5" stroke-miterlimit="10"/>
<path d="M146.096 -3.48687C148.885 -0.697413 153.408 -0.697413 156.197 -3.48687C158.987 -6.27633 158.987 -10.7989 156.197 -13.5884C153.408 -16.3779 148.885 -16.3779 146.096 -13.5884C143.306 -10.7989 143.306 -6.27633 146.096 -3.48687Z" stroke="white" stroke-width="2.5" stroke-miterlimit="10"/>
<path d="M173.033 23.4506C175.823 26.2401 180.345 26.2401 183.135 23.4506C185.924 20.6612 185.924 16.1386 183.135 13.3491C180.345 10.5596 175.823 10.5596 173.033 13.3491C170.244 16.1386 170.244 20.6612 173.033 23.4506Z" stroke="white" stroke-width="2.5" stroke-miterlimit="10"/>
<path d="M167.141 44.4959L173.033 33.5526L154.514 15.0331L135.994 -3.48634L125.051 2.40622" stroke="white" stroke-width="2.5" stroke-miterlimit="10"/>
<path d="M201.654 15.033L155.355 -31.2656L151.988 -27.8984L198.287 18.4002L201.654 15.033Z" stroke="white" stroke-width="2.5" stroke-miterlimit="10"/>
<path d="M172.191 7.45699L162.09 -2.64453L157.039 2.40623L167.141 12.5078L172.191 7.45699Z" stroke="white" stroke-width="2.5" stroke-miterlimit="10"/>
<path d="M284.547 88.1912L232.355 36L197 71.3553L249.191 123.547L284.547 88.1912Z" stroke="white" stroke-width="2.5" stroke-miterlimit="10"/>
<path d="M223.096 70.5131C225.885 73.3026 230.408 73.3026 233.197 70.5131C235.987 67.7237 235.987 63.2011 233.197 60.4116C230.408 57.6221 225.885 57.6221 223.096 60.4116C220.306 63.2011 220.306 67.7237 223.096 70.5131Z" stroke="white" stroke-width="2.5" stroke-miterlimit="10"/>
<path d="M250.033 97.4506C252.823 100.24 257.345 100.24 260.135 97.4506C262.924 94.6612 262.924 90.1386 260.135 87.3491C257.345 84.5596 252.823 84.5596 250.033 87.3491C247.244 90.1386 247.244 94.6612 250.033 97.4506Z" stroke="white" stroke-width="2.5" stroke-miterlimit="10"/>
<path d="M244.141 118.496L250.033 107.553L231.514 89.0331L212.994 70.5137L202.051 76.4062" stroke="white" stroke-width="2.5" stroke-miterlimit="10"/>
<path d="M278.654 89.033L232.355 42.7344L228.988 46.1016L275.287 92.4002L278.654 89.033Z" stroke="white" stroke-width="2.5" stroke-miterlimit="10"/>
<path d="M249.191 81.457L239.09 71.3555L234.039 76.4062L244.141 86.5078L249.191 81.457Z" stroke="white" stroke-width="2.5" stroke-miterlimit="10"/>
<path d="M183.547 107.191L131.355 55L96.0001 90.3553L148.191 142.547L183.547 107.191Z" stroke="white" stroke-width="2.5" stroke-miterlimit="10"/>
<path d="M122.096 89.5131C124.885 92.3026 129.408 92.3026 132.197 89.5131C134.987 86.7237 134.987 82.2011 132.197 79.4116C129.408 76.6221 124.885 76.6221 122.096 79.4116C119.306 82.2011 119.306 86.7237 122.096 89.5131Z" stroke="white" stroke-width="2.5" stroke-miterlimit="10"/>
<path d="M149.033 116.451C151.823 119.24 156.345 119.24 159.135 116.451C161.924 113.661 161.924 109.139 159.135 106.349C156.345 103.56 151.823 103.56 149.033 106.349C146.244 109.139 146.244 113.661 149.033 116.451Z" stroke="white" stroke-width="2.5" stroke-miterlimit="10"/>
<path d="M143.141 137.496L149.033 126.553L130.514 108.033L111.994 89.5137L101.051 95.4062" stroke="white" stroke-width="2.5" stroke-miterlimit="10"/>
<path d="M177.654 108.033L131.355 61.7344L127.988 65.1016L174.287 111.4L177.654 108.033Z" stroke="white" stroke-width="2.5" stroke-miterlimit="10"/>
<path d="M148.191 100.457L138.09 90.3555L133.039 95.4062L143.141 105.508L148.191 100.457Z" stroke="white" stroke-width="2.5" stroke-miterlimit="10"/>
<path d="M99.5467 128.191L47.3555 76L12.0001 111.355L64.1913 163.547L99.5467 128.191Z" stroke="white" stroke-width="2.5" stroke-miterlimit="10"/>
<path d="M38.0957 110.513C40.8852 113.303 45.4078 113.303 48.1972 110.513C50.9867 107.724 50.9867 103.201 48.1972 100.412C45.4078 97.6221 40.8852 97.6221 38.0957 100.412C35.3063 103.201 35.3063 107.724 38.0957 110.513Z" stroke="white" stroke-width="2.5" stroke-miterlimit="10"/>
<path d="M65.0332 137.451C67.8227 140.24 72.3453 140.24 75.1347 137.451C77.9242 134.661 77.9242 130.139 75.1347 127.349C72.3453 124.56 67.8227 124.56 65.0332 127.349C62.2438 130.139 62.2438 134.661 65.0332 137.451Z" stroke="white" stroke-width="2.5" stroke-miterlimit="10"/>
<path d="M59.1405 158.496L65.0331 147.553L46.5136 129.033L27.9941 110.514L17.0508 116.406" stroke="white" stroke-width="2.5" stroke-miterlimit="10"/>
<path d="M93.6541 129.033L47.3555 82.7344L43.9883 86.1016L90.2869 132.4L93.6541 129.033Z" stroke="white" stroke-width="2.5" stroke-miterlimit="10"/>
<path d="M64.1914 121.457L54.0898 111.355L49.0391 116.406L59.1406 126.508L64.1914 121.457Z" stroke="white" stroke-width="2.5" stroke-miterlimit="10"/>
<path d="M254.547 177.191L202.355 125L167 160.355L219.191 212.547L254.547 177.191Z" stroke="white" stroke-width="2.5" stroke-miterlimit="10"/>
<path d="M248.654 178.033L202.355 131.734L198.988 135.102L245.287 181.4L248.654 178.033Z" stroke="white" stroke-width="2.5" stroke-miterlimit="10"/>
</g>
<defs>
<linearGradient id="paint0_linear_621476_226" x1="268.494" y1="3.15292" x2="-7.40478" y2="56.6589" gradientUnits="userSpaceOnUse">
<stop stop-color="#864BFF"/>
<stop offset="1" stop-color="#D11EC1"/>
</linearGradient>
<clipPath id="clip0_621476_226">
<rect width="270" height="134" fill="white"/>
</clipPath>
</defs>
</svg>
