<svg width="270" height="134" viewBox="0 0 270 134" fill="none" xmlns="http://www.w3.org/2000/svg">
<g clip-path="url(#clip0_621476_279)">
<rect width="270" height="134" fill="url(#paint0_linear_621476_279)"/>
<path d="M13.2352 27.6665C15.2749 27.6665 16.9284 29.32 16.9284 31.3597C16.9284 33.3994 15.2749 35.0529 13.2352 35.0529C11.1955 35.0529 9.54199 33.3994 9.54199 31.3597C9.54199 29.32 11.1955 27.6665 13.2352 27.6665ZM14.2295 43.2915H27.7712C29.2094 43.2915 30.3753 44.4574 30.3753 45.8957C30.3753 47.3339 29.2094 48.4999 27.7712 48.4999H14.2295C12.7913 48.4999 11.6253 47.3339 11.6253 45.8957C11.6253 44.4575 12.7913 43.2915 14.2295 43.2915ZM27.2503 24.5415C30.1268 24.5415 32.4587 27.3397 32.4587 30.7915C32.4587 34.2433 30.1269 37.0415 27.2503 37.0415C24.3738 37.0415 22.042 34.2433 22.042 30.7915C22.042 27.3397 24.3738 24.5415 27.2503 24.5415Z" fill="white"/>
<rect x="-1.5" y="13.5" width="45" height="45" rx="22.5" stroke="white" stroke-width="5"/>
<path d="M89.6133 24.5415C91.653 24.5415 93.3065 26.195 93.3065 28.2347C93.3065 30.2744 91.653 31.9279 89.6133 31.9279C87.5736 31.9279 85.9201 30.2744 85.9201 28.2347C85.9201 26.195 87.5736 24.5415 89.6133 24.5415ZM104.386 24.5415C106.426 24.5415 108.079 26.1951 108.079 28.2347C108.079 30.2744 106.426 31.9279 104.386 31.9279C102.346 31.9279 100.693 30.2744 100.693 28.2347C100.693 26.1951 102.346 24.5415 104.386 24.5415ZM85.5413 37.0416H108.458C109.609 37.0416 110.541 37.9743 110.541 39.1249C110.541 40.2755 109.609 41.2082 108.458 41.2082V43.8124C108.458 47.5518 104.385 50.5832 100.646 50.5832C96.906 50.5832 92.833 47.5518 92.833 43.8124V41.2082H85.5413C84.3907 41.2082 83.458 40.2755 83.458 39.1249C83.458 37.9743 84.3907 37.0416 85.5413 37.0416ZM95.958 41.2082V42.7707C95.958 45.3595 98.0566 47.4582 100.646 47.4582C103.234 47.4582 105.333 45.3595 105.333 42.7707V41.2082H102.208V43.8124C102.208 44.6753 101.508 45.3749 100.645 45.3749C99.7825 45.3749 99.0829 44.6753 99.0829 43.8124V41.2082H95.958Z" fill="white"/>
<rect x="74.5" y="13.5" width="45" height="45" rx="22.5" stroke="white" stroke-width="5"/>
<path d="M164.382 40.3496L164.51 40.5533C165.216 43.7514 168.748 45.6621 173 45.6621C177.251 45.6621 180.784 43.7514 181.489 40.5533L181.617 40.3496C181.617 39.1683 182.666 38.4052 184.161 38.4052C185.462 38.4052 186.28 39.3839 186.541 40.3496C185.92 45.4037 179.563 50.0718 173 50.0718C166.437 50.0718 160.08 45.4037 159.458 40.3496C159.719 39.3839 160.537 38.4051 161.838 38.4051C163.334 38.4051 164.382 39.1683 164.382 40.3496ZM161.541 27.6665C162.778 27.6665 163.751 28.1874 165.25 28.1874C166.75 28.1874 167.639 27.6665 168.833 27.6665C169.984 27.6665 170.916 28.5993 170.916 29.7499C170.916 30.9005 169.984 31.8332 168.833 31.8332H161.541C160.391 31.8332 159.458 30.9005 159.458 29.7499C159.458 28.5993 160.391 27.6665 161.541 27.6665ZM177.166 27.6665C178.403 27.6665 179.376 28.1874 180.875 28.1874C182.375 28.1874 183.264 27.6665 184.458 27.6665C185.609 27.6665 186.541 28.5993 186.541 29.7499C186.541 30.9005 185.609 31.8332 184.458 31.8332H177.166C176.016 31.8332 175.083 30.9005 175.083 29.7499C175.083 28.5993 176.016 27.6665 177.166 27.6665Z" fill="white"/>
<rect x="150.5" y="13.5" width="45" height="45" rx="22.5" stroke="white" stroke-width="5"/>
<path d="M249 49.7006C252.437 49.7006 255.665 47.1669 257.048 44.2555H240.951C242.334 47.1669 245.562 49.7006 249 49.7006ZM260.161 40.1126C261.462 40.1126 262.28 41.0914 262.541 42.3143C261.92 48.7139 255.563 54.6249 249 54.6249C242.437 54.6249 236.08 48.7139 235.458 42.3142C235.719 41.0914 236.537 40.1126 237.92 40.1135V40.1126H260.079H260.161ZM241.708 27.5415C245.16 27.5415 247.958 30.3397 247.958 33.7915C247.958 34.6545 247.258 35.354 246.396 35.354C245.533 35.354 244.833 34.6545 244.833 33.7915C244.833 32.0656 243.434 30.6665 241.708 30.6665C239.982 30.6665 238.583 32.0656 238.583 33.7915C238.583 34.6545 237.883 35.354 237.021 35.354C236.158 35.354 235.458 34.6545 235.458 33.7915C235.458 30.3397 238.256 27.5415 241.708 27.5415ZM256.291 27.5415C259.743 27.5415 262.541 30.3397 262.541 33.7915C262.541 34.6545 261.842 35.354 260.979 35.354C260.116 35.354 259.416 34.6545 259.416 33.7915C259.416 32.0656 258.017 30.6665 256.291 30.6665C254.565 30.6665 253.166 32.0656 253.166 33.7915C253.166 34.6545 252.467 35.354 251.604 35.354C250.741 35.354 250.041 34.6545 250.041 33.7915C250.041 30.3397 252.84 27.5415 256.291 27.5415Z" fill="white"/>
<rect x="226.5" y="16.5" width="45" height="45" rx="22.5" stroke="white" stroke-width="5"/>
<path d="M12.3822 100.314L12.5104 100.572C13.2158 104.622 16.7481 107.701 20.9997 107.701C25.2512 107.701 28.7835 104.622 29.4889 100.572L29.6171 100.314C29.6171 98.8185 30.6655 97.8522 32.1612 97.8522C33.462 97.8522 34.2801 99.0914 34.5413 100.314C33.9197 106.714 27.5625 112.625 20.9997 112.625C14.4368 112.625 8.07965 106.714 7.45801 100.314C7.71919 99.0914 8.53728 97.8521 9.83807 97.8521C11.3338 97.8521 12.3822 98.8185 12.3822 100.314ZM13.6133 85.5415C15.653 85.5415 17.3065 87.195 17.3065 89.2347C17.3065 91.2744 15.653 92.9279 13.6133 92.9279C11.5736 92.9279 9.92011 91.2744 9.92011 89.2347C9.92011 87.195 11.5736 85.5415 13.6133 85.5415ZM28.386 85.5415C30.4257 85.5415 32.0792 87.195 32.0792 89.2347C32.0792 91.2744 30.4257 92.9279 28.386 92.9279C26.3464 92.9279 24.6928 91.2744 24.6928 89.2347C24.6928 87.195 26.3464 85.5415 28.386 85.5415Z" fill="white"/>
<rect x="-1.5" y="74.5" width="45" height="45" rx="22.5" stroke="white" stroke-width="5"/>
<path d="M90.2287 104.291H103.77C105.209 104.291 106.375 105.457 106.375 106.896C106.375 108.334 105.209 109.5 103.77 109.5H90.2287C88.7905 109.5 87.6246 108.334 87.6246 106.896C87.6246 105.457 88.7905 104.291 90.2287 104.291ZM84.6764 96.0866L89.3891 93.3657L84.6764 90.6449C83.7551 90.1129 83.4394 88.9347 83.9713 88.0134C84.5033 87.0919 85.6815 86.7763 86.6029 87.3082L94.1104 91.6426C94.7447 92.0089 95.092 92.6815 95.0731 93.3657C95.092 94.0499 94.7448 94.7226 94.1104 95.0888L86.6029 99.4233C85.6814 99.9553 84.5033 99.6396 83.9713 98.7182C83.4393 97.7968 83.7551 96.6186 84.6764 96.0866ZM109.323 96.0866C110.244 96.6186 110.56 97.7968 110.028 98.7182C109.496 99.6396 108.318 99.9553 107.396 99.4233L99.8888 95.0888C99.2544 94.7226 98.9072 94.0499 98.926 93.3657C98.9072 92.6815 99.2545 92.0089 99.8888 91.6426L107.396 87.3082C108.318 86.7763 109.496 87.0919 110.028 88.0134C110.56 88.9347 110.244 90.1129 109.323 90.6449L104.61 93.3657L109.323 96.0866Z" fill="white"/>
<rect x="74.5" y="74.5" width="45" height="45" rx="22.5" stroke="white" stroke-width="5"/>
<path d="M166.229 104.292H179.771C181.209 104.292 182.375 105.457 182.375 106.896C182.375 108.334 181.209 109.5 179.771 109.5H166.229C164.791 109.5 163.625 108.334 163.625 106.896C163.625 105.457 164.791 104.292 166.229 104.292ZM165.235 91.7917C167.275 91.7917 168.928 93.4452 168.928 95.4848C168.928 97.5245 167.275 99.178 165.235 99.178C163.195 99.178 161.542 97.5245 161.542 95.4848C161.542 93.4452 163.195 91.7917 165.235 91.7917ZM180.765 91.6969C182.805 91.6969 184.459 93.3504 184.459 95.3901C184.459 97.4298 182.805 99.0833 180.765 99.0833C178.726 99.0833 177.072 97.4298 177.072 95.3901C177.072 93.3504 178.726 91.6969 180.765 91.6969ZM177.218 91.3219C176.471 91.7533 175.515 91.4973 175.084 90.75C174.652 90.0026 174.908 89.047 175.656 88.6155L182.872 84.4488C183.62 84.0174 184.575 84.2734 185.007 85.0207C185.438 85.7681 185.182 86.7237 184.435 87.1552L177.218 91.3219ZM161.566 87.1552C160.818 86.7237 160.562 85.7681 160.994 85.0207C161.425 84.2734 162.381 84.0174 163.128 84.4488L170.345 88.6155C171.092 89.047 171.348 90.0026 170.917 90.7499C170.485 91.4973 169.53 91.7533 168.783 91.3219L161.566 87.1552Z" fill="white"/>
<rect x="150.5" y="74.5" width="45" height="45" rx="22.5" stroke="white" stroke-width="5"/>
<path d="M242.229 104.292H255.771C257.209 104.292 258.375 105.457 258.375 106.896C258.375 108.334 257.209 109.5 255.771 109.5H242.229C240.791 109.5 239.625 108.334 239.625 106.896C239.625 105.457 240.791 104.292 242.229 104.292ZM241.235 91.7917C243.275 91.7917 244.928 93.4452 244.928 95.4848C244.928 97.5245 243.275 99.178 241.235 99.178C239.195 99.178 237.542 97.5245 237.542 95.4848C237.542 93.4452 239.195 91.7917 241.235 91.7917ZM256.765 91.6969C258.805 91.6969 260.459 93.3504 260.459 95.3901C260.459 97.4298 258.805 99.0833 256.765 99.0833C254.726 99.0833 253.072 97.4298 253.072 95.3901C253.072 93.3504 254.726 91.6969 256.765 91.6969ZM253.218 91.3219C252.471 91.7533 251.515 91.4973 251.084 90.75C250.652 90.0026 250.908 89.047 251.656 88.6155L258.872 84.4488C259.62 84.0174 260.575 84.2734 261.007 85.0207C261.438 85.7681 261.182 86.7237 260.435 87.1552L253.218 91.3219ZM237.566 87.1552C236.818 86.7237 236.562 85.7681 236.994 85.0207C237.425 84.2734 238.381 84.0174 239.128 84.4488L246.345 88.6155C247.092 89.047 247.348 90.0026 246.917 90.7499C246.485 91.4973 245.53 91.7533 244.783 91.3219L237.566 87.1552Z" fill="white"/>
<rect x="226.5" y="74.5" width="45" height="45" rx="22.5" stroke="white" stroke-width="5"/>
</g>
<defs>
<linearGradient id="paint0_linear_621476_279" x1="173.5" y1="-125" x2="138.865" y2="57.9836" gradientUnits="userSpaceOnUse">
<stop offset="0.0733084" stop-color="#864BFF"/>
<stop offset="1" stop-color="#D11EC1"/>
</linearGradient>
<clipPath id="clip0_621476_279">
<rect width="270" height="134" fill="white"/>
</clipPath>
</defs>
</svg>
